<svg width="54" height="49" viewBox="0 0 54 49" fill="none" xmlns="http://www.w3.org/2000/svg">
<path d="M41.875 45H34V38C34 36.1435 33.2625 34.363 31.9498 33.0503C30.637 31.7375 28.8565 31 27 31C25.1435 31 23.363 31.7375 22.0502 33.0503C20.7375 34.363 20 36.1435 20 38V45H8.625V16.3438H8.50469L25.4819 4.34315C25.9247 4.03055 26.4535 3.86272 26.9956 3.86272C27.5377 3.86272 28.0665 4.03055 28.5094 4.34315L45.375 16.2453V21.4166C45.6637 21.3903 45.9547 21.375 46.25 21.375C47.1378 21.3749 48.0213 21.4986 48.875 21.7425V18.715L53.25 21.8125V17.5185L30.5284 1.4819C29.4939 0.753802 28.2596 0.363037 26.9945 0.363037C25.7294 0.363037 24.4952 0.753802 23.4606 1.4819L0.75 17.5382V21.8257L5.125 18.7325V45C5.125 45.9283 5.49375 46.8185 6.15012 47.4749C6.8065 48.1313 7.69674 48.5 8.625 48.5H41.875V45ZM30.5 45H23.5V38C23.5 37.0718 23.8687 36.1815 24.5251 35.5252C25.1815 34.8688 26.0717 34.5 27 34.5C27.9283 34.5 28.8185 34.8688 29.4749 35.5252C30.1313 36.1815 30.5 37.0718 30.5 38V45Z" fill="url(#paint0_linear_10029_850)"/>
<defs>
<linearGradient id="paint0_linear_10029_850" x1="0.75" y1="0.363037" x2="25.0494" y2="59.992" gradientUnits="userSpaceOnUse">
<stop offset="0.272135" stop-color="#34263B"/>
<stop offset="0.658079" stop-color="#13172C"/>
</linearGradient>
</defs>
</svg>
